Coordinates
version=1
nRows=17
nColumns=40
inDegrees=yes

Units are S.I. units (second, meters, Newtons, ...)
Angles are in degrees.

endheader
time	pelvis_tilt	pelvis_list	pelvis_rotation	pelvis_tx	pelvis_ty	pelvis_tz	hip_flexion_r	hip_adduction_r	hip_rotation_r	knee_angle_r	knee_angle_r_beta	ankle_angle_r	subtalar_angle_r	mtp_angle_r	hip_flexion_l	hip_adduction_l	hip_rotation_l	knee_angle_l	knee_angle_l_beta	ankle_angle_l	subtalar_angle_l	mtp_angle_l	lumbar_extension	lumbar_bending	lumbar_rotation	arm_flex_r	arm_add_r	arm_rot_r	elbow_flex_r	pro_sup_r	wrist_flex_r	wrist_dev_r	arm_flex_l	arm_add_l	arm_rot_l	elbow_flex_l	pro_sup_l	wrist_flex_l	wrist_dev_l
     39.61750000	     -2.77488832	     -4.94845984	      6.24106596	      1.05936718	      0.92990509	      0.46940027	      9.48376549	      2.59559065	    -15.69545313	     16.08709471	     16.08709471	     10.90297045	     -4.17065081	     -6.50092846	     36.13006035	    -11.91944704	      1.54940041	     50.02883071	     50.02883071	      8.93265714	    -18.82470632	     14.01934298	    -11.07633838	      5.58457192	      3.03017485	     25.12052359	    -20.62429521	     -3.95809106	     75.81436568	     44.81098013	      0.00000000	      0.00000000	     -3.47986324	     -8.59578312	     -6.38170658	     26.80165204	     46.18181482	      0.00000000	      0.00000000
     39.63100000	     -3.06548220	     -4.86139326	      6.61522531	      1.05790864	      0.92972614	      0.46892908	      9.35214804	      2.50148130	    -15.88960752	     15.81350209	     15.81350209	     10.99648620	     -4.28429220	     -6.48035418	     36.48295679	    -11.33429438	      1.56887023	     46.46644903	     46.46644903	      9.20754294	    -18.63959004	     14.32735597	    -10.92014576	      5.46473670	      3.15423361	     26.49174012	    -20.62709082	     -4.22544295	     77.00570471	     44.79011933	      0.00000000	      0.00000000	     -4.19577422	     -8.39763981	     -6.25330603	     26.47519499	     46.14681906	      0.00000000	      0.00000000
     39.64450000	     -3.20322082	     -4.76234039	      7.00561329	      1.05658107	      0.92969842	      0.46819789	      9.03964330	      2.37764060	    -16.20145560	     15.54257323	     15.54257323	     11.12876136	     -4.19976261	     -6.50786362	     36.51324553	    -10.66025764	      1.80879144	     42.81533256	     42.81533256	      9.25431090	    -18.38386287	     14.24465412	    -11.01865404	      5.43141184	      2.88256762	     27.66176504	    -20.14194914	     -4.43888881	     79.58557066	     44.72693420	      0.00000000	      0.00000000	     -5.11499683	     -8.27707477	     -5.99762538	     26.24429012	     46.08384022	      0.00000000	      0.00000000
     39.65800000	     -3.45667054	     -4.69800260	      7.33581306	      1.05521710	      0.92936988	      0.46734997	      8.89498217	      2.24287989	    -16.58574139	     15.36038323	     15.36038323	     11.33451170	     -3.93820094	     -6.59021592	     36.55860666	    -10.02573731	      2.10398024	     39.15575537	     39.15575537	      8.75789367	    -17.94584730	     12.82933171	    -11.04093476	      5.38635324	      3.47438799	     27.95628610	    -20.56338052	     -5.01337590	     83.04132691	     44.66973384	      0.00000000	      0.00000000	     -5.78804578	     -8.16088536	     -5.33731073	     26.77445514	     45.95048939	      0.00000000	      0.00000000
     39.67150000	     -3.72123157	     -4.63461489	      7.61252223	      1.05393000	      0.92902230	      0.46642359	      8.77314632	      2.13613648	    -16.72741334	     15.18246180	     15.18246180	     11.46883915	     -4.03423048	     -6.60162375	     36.61811115	     -9.40307695	      2.52385612	     35.83986559	     35.83986559	      8.94474634	    -16.99341411	     13.02485631	    -10.90395404	      5.31930715	      3.61424846	     29.22640067	    -20.45845845	     -5.16744439	     84.10626439	     44.64983655	      0.00000000	      0.00000000	     -6.35396114	     -7.95021204	     -5.22261225	     26.55616883	     45.92154990	      0.00000000	      0.00000000
     39.68500000	     -3.94563717	     -4.79101886	      7.88075450	      1.05272579	      0.92853597	      0.46550378	      8.68931590	      2.24847524	    -16.95545586	     15.13276015	     15.13276015	     11.61908202	     -4.09273882	     -6.66724972	     36.72074159	     -9.02362669	      3.16635281	     32.89824072	     32.89824072	      9.13639765	    -15.73510752	     13.19421854	    -10.74826023	      5.48052741	      3.80473859	     30.37262714	    -20.41469065	     -5.28218592	     85.06920209	     44.62962632	      0.00000000	      0.00000000	     -6.89253554	     -7.73327188	     -5.16662195	     26.39737146	     45.90260324	      0.00000000	      0.00000000
     39.69850000	     -3.98381798	     -4.56101682	      8.09321335	      1.05197979	      0.92848741	      0.46425675	      8.16093650	      1.96986344	    -17.27875699	     14.79110463	     14.79110463	     11.92499404	     -3.54758625	     -6.72459493	     36.29752152	     -8.40124934	      3.41930244	     30.00019561	     30.00019561	      8.76982616	    -14.47823584	     11.79972215	    -11.03305807	      5.28142906	      3.81715637	     30.80551349	    -20.01380271	     -5.34327896	     88.72137853	     44.55247193	      0.00000000	      0.00000000	     -7.69042957	     -7.65245494	     -4.89307863	     26.89632935	     45.84280025	      0.00000000	      0.00000000
     39.71200000	     -4.11425777	     -4.52894784	      8.26016947	      1.05125994	      0.92820515	      0.46310119	      7.83648683	      1.91569328	    -17.36565114	     14.58478856	     14.58478856	     12.10847814	     -3.52258774	     -6.74705720	     36.12350704	     -8.02572076	      3.69084174	     27.70430163	     27.70430163	      8.93032680	    -12.92579624	     11.78746814	    -10.99715297	      5.22986244	      3.88122059	     31.78287067	    -19.60250350	     -5.36866528	     89.84691111	     44.53010307	      0.00000000	      0.00000000	     -8.16028367	     -7.49660609	     -4.79694901	     26.71184458	     45.82087788	      0.00000000	      0.00000000
     39.72550000	     -4.20805744	     -4.53543822	      8.38807255	      1.05081589	      0.92791099	      0.46187230	      7.43089286	      1.91078413	    -17.48660098	     14.31544708	     14.31544708	     12.31155972	     -3.35509196	     -6.78854766	     35.94323388	     -7.76389740	      3.80861184	     25.92689909	     25.92689909	      9.07068469	    -11.41298764	     11.69112179	    -10.97592065	      5.21186695	      3.92160049	     32.60475428	    -19.16458499	     -5.29189123	     91.14103467	     44.49949807	      0.00000000	      0.00000000	     -8.58802250	     -7.34085699	     -4.74432553	     26.62863492	     45.80698775	      0.00000000	      0.00000000
     39.73900000	     -4.28817306	     -4.53717329	      8.46651484	      1.05064666	      0.92758154	      0.46056143	      6.97744980	      1.90942212	    -17.57860703	     14.02348085	     14.02348085	     12.53965386	     -3.15542351	     -6.83067340	     35.71752680	     -7.55626592	      3.73123566	     24.59209081	     24.59209081	      9.16195381	    -10.16788373	     11.56270234	    -10.91017474	      5.18577352	      4.00990536	     33.27839593	    -18.74237211	     -5.16149148	     92.29992448	     44.47035175	      0.00000000	      0.00000000	     -8.93764209	     -7.20755054	     -4.72392861	     26.61312828	     45.79911669	      0.00000000	      0.00000000
     39.75250000	     -4.33169702	     -4.59850903	      8.50302362	      1.05077167	      0.92720042	      0.45919664	      6.44356859	      1.98011620	    -17.67776345	     13.67442275	     13.67442275	     12.75991197	     -2.85152919	     -6.89046055	     35.45139637	     -7.46145303	      3.49847211	     23.71773741	     23.71773741	      9.20251521	     -9.18635190	     11.30708081	    -10.84888919	      5.20687852	      4.10218034	     33.81242365	    -18.29974374	     -4.97131278	     93.48877417	     44.44000022	      0.00000000	      0.00000000	     -9.23644816	     -7.08952911	     -4.72923619	     26.63042728	     45.79758385	      0.00000000	      0.00000000
     39.76600000	     -4.37343884	     -4.64720986	      8.50152782	      1.05119350	      0.92675817	      0.45773889	      5.89937111	      2.03613078	    -17.72126898	     13.34583923	     13.34583923	     13.00010421	     -2.58996694	     -6.94996333	     35.10011630	     -7.37952223	      3.14010638	     23.16590180	     23.16590180	      9.11559465	     -8.61392503	     11.08153593	    -10.71064309	      5.20562427	      4.21258120	     34.23272761	    -17.88637751	     -4.77650370	     94.37304115	     44.41635678	      0.00000000	      0.00000000	     -9.42390105	     -6.99304629	     -4.73760206	     26.65389408	     45.79787542	      0.00000000	      0.00000000
     39.77950000	     -4.38901782	     -4.74562850	      8.42036351	      1.05197230	      0.92617436	      0.45626492	      5.28544825	      2.15734737	    -17.72652660	     12.96894553	     12.96894553	     13.26867253	     -2.23613329	     -7.01969333	     34.67289436	     -7.40780882	      2.63662025	     22.95947328	     22.95947328	      8.96844976	     -8.38834998	     10.70396328	    -10.54795451	      5.23876327	      4.35885623	     34.52221482	    -17.41846536	     -4.51086429	     95.18845980	     44.39310476	      0.00000000	      0.00000000	     -9.58675728	     -6.93005228	     -4.75704965	     26.70185452	     45.80049667	      0.00000000	      0.00000000
     39.79300000	     -4.37403353	     -4.88067909	      8.32381565	      1.05305844	      0.92549787	      0.45467383	      4.59847832	      2.31575206	    -17.75521523	     12.55057650	     12.55057650	     13.55096629	     -1.75716838	     -7.09873618	     34.14457363	     -7.50544199	      2.00439410	     22.95498130	     22.95498130	      8.51448593	     -8.42195186	      9.89921752	    -10.37366163	      5.30494392	      4.49163037	     34.60388310	    -17.02170208	     -4.15007834	     95.96930187	     44.37576284	      0.00000000	      0.00000000	     -9.69993725	     -6.88470772	     -4.80304058	     26.87332506	     45.80961577	      0.00000000	      0.00000000
     39.80650000	     -4.43555198	     -4.97083545	      8.11557460	      1.05431854	      0.92454331	      0.45305728	      4.13011956	      2.37431778	    -17.58465611	     12.42808515	     12.42808515	     13.89886401	     -1.60435994	     -7.19201041	     33.61562130	     -7.57501227	      1.38906811	     23.15275934	     23.15275934	      8.25592577	     -8.77591194	      9.81384132	    -10.04613878	      5.28121467	      4.74681353	     34.57655818	    -16.63557725	     -3.93551967	     96.13879842	     44.36681395	      0.00000000	      0.00000000	     -9.65937579	     -6.89535135	     -4.81080386	     26.92584512	     45.81220875	      0.00000000	      0.00000000
     39.82000000	     -4.31475181	     -5.10448065	      8.03172404	      1.05598744	      0.92378942	      0.45119463	      3.22444081	      2.55603956	    -17.59740009	     11.88607941	     11.88607941	     14.22748541	     -1.09777168	     -7.13540011	     32.76332186	     -7.68272144	      0.77938303	     23.23987503	     23.23987503	      7.65367508	     -9.11792186	      8.95060710	     -9.92593926	      5.34100466	      4.67911796	     34.51106287	    -16.16632480	     -3.48150311	     96.67749299	     44.35070895	      0.00000000	      0.00000000	     -9.71283370	     -6.93589084	     -4.84309854	     27.08472908	     45.81872820	      0.00000000	      0.00000000
     39.83350000	     -4.39280250	     -5.22792031	      7.84909746	      1.05755797	      0.92256500	      0.44931430	      2.80441282	      2.61443774	    -17.40991921	     11.86863484	     11.86863484	     14.64037755	     -1.00593032	     -7.24501464	     32.18555639	     -7.78548905	      0.18248707	     23.54769990	     23.54769990	      7.32087876	     -9.49804348	      8.92736047	     -9.53934149	      5.33824747	      4.81487184	     34.25289620	    -15.84981099	     -3.27218389	     96.67492522	     44.34509586	      0.00000000	      0.00000000	     -9.54139690	     -7.00516647	     -4.85409085	     27.18113202	     45.82373017	      0.00000000	      0.00000000
